<svg xmlns="http://www.w3.org/2000/svg" viewBox="0 0 24 24" height="24" width="24"><title>social-rewards-vip-crown-king</title><g><path d="M22.86 6.28875H24v2.2800000000000002h-1.1400000000000001Z" fill="#050505" stroke-width="1"></path><path d="M20.572499999999998 10.85625h1.1400000000000001v4.574999999999999H13.7175V16.575000000000003h1.1400000000000001v1.1400000000000001h-1.1400000000000001v1.1475h7.995v2.2874999999999996h1.1475V8.568750000000001h-2.2874999999999996Zm-3.4275 6.855h-1.1475V16.575000000000003h1.1475Zm4.5675 0H19.424999999999997V16.575000000000003h2.2874999999999996Z" fill="#050505" stroke-width="1"></path><path d="m21.7125 7.428749999999999 0 -1.1400000000000001 1.1475 0 0 -1.1475 -2.2874999999999996 0 0 1.1475 -1.1475 0 0 2.2800000000000002 1.1475 0 0 -1.1400000000000001 1.1400000000000001 0z" fill="#050505" stroke-width="1"></path><path d="m12.57 21.146250000000002 0 -1.1475 -1.1400000000000001 0 0 1.1475 -9.1425 0 0 1.1400000000000001 19.424999999999997 0 0 -1.1400000000000001 -9.1425 0z" fill="#050505" stroke-width="1"></path><path d="m15.997499999999999 11.99625 0 1.1475 1.1475 0 0 1.1400000000000001 1.1400000000000001 0 0 -1.1400000000000001 1.1400000000000001 0 0 -1.1475 1.1475 0 0 -1.1400000000000001 -1.1475 0 0 -1.1400000000000001 -1.1400000000000001 0 0 -1.1475 -1.1400000000000001 0 0 1.1475 -1.1475 0 0 1.1400000000000001 -1.1400000000000001 0 0 1.1400000000000001 1.1400000000000001 0z" fill="#050505" stroke-width="1"></path><path d="M13.7175 9.71625h1.1400000000000001v1.1400000000000001h-1.1400000000000001Z" fill="#050505" stroke-width="1"></path><path d="M13.7175 2.8537500000000002h1.1400000000000001v3.435h-1.1400000000000001Z" fill="#050505" stroke-width="1"></path><path d="M12.57 18.85875h1.1475v1.1400000000000001h-1.1475Z" fill="#050505" stroke-width="1"></path><path d="M12.57 14.283750000000001h1.1475v1.1475h-1.1475Z" fill="#050505" stroke-width="1"></path><path d="M12.57 8.568750000000001h1.1475v1.1475h-1.1475Z" fill="#050505" stroke-width="1"></path><path d="M11.43 16.57125h1.1400000000000001v1.1400000000000001h-1.1400000000000001Z" fill="#050505" stroke-width="1"></path><path d="M11.43 13.143749999999999h1.1400000000000001v1.1400000000000001h-1.1400000000000001Z" fill="#050505" stroke-width="1"></path><path d="m12.57 7.428749999999999 1.1475 0 0 -1.1400000000000001 -3.435 0 0 1.1400000000000001 1.1475 0 0 1.1400000000000001 1.1400000000000001 0 0 -1.1400000000000001z" fill="#050505" stroke-width="1"></path><path d="M11.43 4.00125h1.1400000000000001v1.1400000000000001h-1.1400000000000001Z" fill="#050505" stroke-width="1"></path><path d="M10.2825 1.71375h3.435v1.1400000000000001h-3.435Z" fill="#050505" stroke-width="1"></path><path d="M10.2825 18.85875h1.1475v1.1400000000000001h-1.1475Z" fill="#050505" stroke-width="1"></path><path d="M10.2825 14.283750000000001h1.1475v1.1475h-1.1475Z" fill="#050505" stroke-width="1"></path><path d="M10.2825 8.568750000000001h1.1475v1.1475h-1.1475Z" fill="#050505" stroke-width="1"></path><path d="M9.1425 9.71625h1.1400000000000001v1.1400000000000001h-1.1400000000000001Z" fill="#050505" stroke-width="1"></path><path d="M9.1425 2.8537500000000002h1.1400000000000001v3.435h-1.1400000000000001Z" fill="#050505" stroke-width="1"></path><path d="m4.574999999999999 11.99625 0 1.1475 1.1400000000000001 0 0 1.1400000000000001 1.1400000000000001 0 0 -1.1400000000000001 1.1475 0 0 -1.1475 1.1400000000000001 0 0 -1.1400000000000001 -1.1400000000000001 0 0 -1.1400000000000001 -1.1475 0 0 -1.1475 -1.1400000000000001 0 0 1.1475 -1.1400000000000001 0 0 1.1400000000000001 -1.1475 0 0 1.1400000000000001 1.1475 0z" fill="#050505" stroke-width="1"></path><path d="m2.2874999999999996 7.428749999999999 1.1400000000000001 0 0 1.1400000000000001 1.1475 0 0 -2.2800000000000002 -1.1475 0 0 -1.1475 -2.2874999999999996 0 0 1.1475 1.1475 0 0 1.1400000000000001z" fill="#050505" stroke-width="1"></path><path d="M10.2825 18.85875v-1.1475h-1.1400000000000001V16.575000000000003h1.1400000000000001v-1.1400000000000001H2.2874999999999996v-4.574999999999999h1.1400000000000001v-2.2874999999999996H1.1400000000000001V21.15h1.1475v-2.2874999999999996ZM6.855 16.575000000000003h1.1475v1.1400000000000001H6.855Zm-4.5675 0H4.574999999999999v1.1400000000000001H2.2874999999999996Z" fill="#050505" stroke-width="1"></path><path d="M0 6.28875h1.1400000000000001v2.2800000000000002H0Z" fill="#050505" stroke-width="1"></path></g></svg>