<svg xmlns="http://www.w3.org/2000/svg" viewBox="0 0 24 24" height="24" width="24"><title>business-prodect-diamond</title><g><path d="M22.8525 15.997499999999999H24v1.1475h-1.1475Z" fill="#000000" stroke-width="1"></path><path d="M22.8525 10.290000000000001h-4.5675v-4.574999999999999h1.1400000000000001V4.574999999999999h-1.1400000000000001V3.4275H5.715V4.574999999999999H4.5675v1.1400000000000001H3.4275v1.1400000000000001H2.2874999999999996v1.1475H1.1400000000000001v1.1400000000000001H0v3.4275h1.1400000000000001v-1.1400000000000001h5.715v2.2874999999999996h1.1400000000000001v2.2800000000000002h1.1475v2.2874999999999996h1.1400000000000001v2.2874999999999996h1.1475V11.43h4.5675v2.2874999999999996h-1.1400000000000001v2.2800000000000002h-1.1475v2.2874999999999996h-1.1400000000000001v2.2874999999999996h-1.1400000000000001v1.1400000000000001h-1.1475v1.1475h1.1475V24h1.1400000000000001v-1.1400000000000001h1.1400000000000001v-1.1475h1.1475v-1.1400000000000001h1.1400000000000001v-1.1400000000000001h1.1475v-1.1475h1.1400000000000001v-1.1400000000000001h1.1400000000000001v-1.1475h1.1475v-1.1400000000000001h1.1400000000000001v-1.1400000000000001h1.1400000000000001v-1.1475H24v-3.4275h-1.1475Zm-6.855 0H7.995v-1.1475H6.855V4.574999999999999h4.574999999999999v1.1400000000000001h1.1400000000000001v1.1400000000000001h1.1400000000000001v1.1475h1.1475v1.1400000000000001h1.1400000000000001Z" fill="#000000" stroke-width="1"></path><path d="M21.7125 19.4325h1.1400000000000001v1.1400000000000001h-1.1400000000000001Z" fill="#000000" stroke-width="1"></path><path d="M21.7125 8.0025h1.1400000000000001v1.1400000000000001h-1.1400000000000001Z" fill="#000000" stroke-width="1"></path><path d="M20.572499999999998 20.572499999999998h1.1400000000000001v1.1400000000000001h-1.1400000000000001Z" fill="#000000" stroke-width="1"></path><path d="M20.572499999999998 18.285h1.1400000000000001v1.1475h-1.1400000000000001Z" fill="#000000" stroke-width="1"></path><path d="M20.572499999999998 6.855h1.1400000000000001v1.1475h-1.1400000000000001Z" fill="#000000" stroke-width="1"></path><path d="m20.572499999999998 2.2874999999999996 -1.1475 0 0 1.1400000000000001 1.1475 0 0 1.1475 1.1400000000000001 0 0 -1.1475 1.1400000000000001 0 0 -1.1400000000000001 -1.1400000000000001 0 0 -1.1475 -1.1400000000000001 0 0 1.1475z" fill="#000000" stroke-width="1"></path><path d="M19.424999999999997 19.4325h1.1475v1.1400000000000001H19.424999999999997Z" fill="#000000" stroke-width="1"></path><path d="M19.424999999999997 5.715h1.1475v1.1400000000000001H19.424999999999997Z" fill="#000000" stroke-width="1"></path><path d="M17.145 22.86h1.1400000000000001V24h-1.1400000000000001Z" fill="#000000" stroke-width="1"></path><path d="M17.145 0h1.1400000000000001v1.1400000000000001h-1.1400000000000001Z" fill="#000000" stroke-width="1"></path><path d="M10.2825 5.715h1.1475v1.1400000000000001h-1.1475Z" fill="#000000" stroke-width="1"></path><path d="M10.2825 1.1400000000000001h1.1475v1.1475h-1.1475Z" fill="#000000" stroke-width="1"></path><path d="M9.1425 20.572499999999998h1.1400000000000001v1.1400000000000001h-1.1400000000000001Z" fill="#000000" stroke-width="1"></path><path d="M9.1425 6.855h1.1400000000000001v1.1475h-1.1400000000000001Z" fill="#000000" stroke-width="1"></path><path d="M7.995 19.4325h1.1475v1.1400000000000001h-1.1475Z" fill="#000000" stroke-width="1"></path><path d="M7.995 8.0025h1.1475v1.1400000000000001h-1.1475Z" fill="#000000" stroke-width="1"></path><path d="M6.855 21.7125h1.1400000000000001v1.1475H6.855Z" fill="#000000" stroke-width="1"></path><path d="M6.855 18.285h1.1400000000000001v1.1475H6.855Z" fill="#000000" stroke-width="1"></path><path d="M5.715 17.145h1.1400000000000001v1.1400000000000001H5.715Z" fill="#000000" stroke-width="1"></path><path d="M4.5675 15.997499999999999h1.1475v1.1475H4.5675Z" fill="#000000" stroke-width="1"></path><path d="M3.4275 14.857499999999998h1.1400000000000001v1.1400000000000001H3.4275Z" fill="#000000" stroke-width="1"></path><path d="M3.4275 2.2874999999999996h1.1400000000000001v1.1400000000000001H3.4275Z" fill="#000000" stroke-width="1"></path><path d="m2.2874999999999996 18.285 0 1.1475 -1.1475 0 0 1.1400000000000001 1.1475 0 0 1.1400000000000001 1.1400000000000001 0 0 -1.1400000000000001 1.1400000000000001 0 0 -1.1400000000000001 -1.1400000000000001 0 0 -1.1475 -1.1400000000000001 0z" fill="#000000" stroke-width="1"></path><path d="M2.2874999999999996 13.7175h1.1400000000000001v1.1400000000000001H2.2874999999999996Z" fill="#000000" stroke-width="1"></path><path d="M2.2874999999999996 3.4275h1.1400000000000001V4.574999999999999H2.2874999999999996Z" fill="#000000" stroke-width="1"></path><path d="M2.2874999999999996 1.1400000000000001h1.1400000000000001v1.1475H2.2874999999999996Z" fill="#000000" stroke-width="1"></path><path d="M1.1400000000000001 12.57h1.1475v1.1475H1.1400000000000001Z" fill="#000000" stroke-width="1"></path><path d="M1.1400000000000001 2.2874999999999996h1.1475v1.1400000000000001H1.1400000000000001Z" fill="#000000" stroke-width="1"></path><path d="M0 15.997499999999999h1.1400000000000001v1.1475H0Z" fill="#000000" stroke-width="1"></path></g></svg>