<svg xmlns="http://www.w3.org/2000/svg" viewBox="0 0 24 24" height="24" width="24"><title>entertainment-events-hobbies-horror-ghost</title><g><path d="M22.2825 14.857499999999998h1.1475v3.4275h-1.1475Z" fill="#050505" stroke-width="1"></path><path d="m22.2825 0 -1.1400000000000001 0 0 1.1400000000000001 -1.1475 0 0 1.1475 1.1475 0 0 1.1400000000000001 1.1400000000000001 0 0 -1.1400000000000001 1.1475 0 0 -1.1475 -1.1475 0 0 -1.1400000000000001z" fill="#050505" stroke-width="1"></path><path d="M21.142500000000002 8.0025h1.1400000000000001v6.855h-1.1400000000000001Z" fill="#050505" stroke-width="1"></path><path d="M19.995 18.285h2.2874999999999996v1.1400000000000001h-2.2874999999999996Z" fill="#050505" stroke-width="1"></path><path d="M19.995 5.715h1.1475v2.2874999999999996h-1.1475Z" fill="#050505" stroke-width="1"></path><path d="M18.855 19.424999999999997h1.1400000000000001v1.1475h-1.1400000000000001Z" fill="#050505" stroke-width="1"></path><path d="M18.855 15.997499999999999h1.1400000000000001v2.2874999999999996h-1.1400000000000001Z" fill="#050505" stroke-width="1"></path><path d="M18.855 4.574999999999999h1.1400000000000001v1.1400000000000001h-1.1400000000000001Z" fill="#050505" stroke-width="1"></path><path d="M17.715 20.572499999999998h1.1400000000000001v1.1400000000000001h-1.1400000000000001Z" fill="#050505" stroke-width="1"></path><path d="m18.855 8.0025 -1.1400000000000001 0 0 1.1400000000000001 -1.1475 0 0 1.1400000000000001 1.1475 0 0 1.1475 1.1400000000000001 0 0 -1.1475 1.1400000000000001 0 0 -1.1400000000000001 -1.1400000000000001 0 0 -1.1400000000000001z" fill="#050505" stroke-width="1"></path><path d="M16.5675 3.4275h2.2874999999999996V4.574999999999999h-2.2874999999999996Z" fill="#050505" stroke-width="1"></path><path d="M15.4275 21.7125h2.2874999999999996v1.1475h-2.2874999999999996Z" fill="#050505" stroke-width="1"></path><path d="M13.14 11.43v3.4275h3.4275v-3.4275Zm2.2874999999999996 2.2874999999999996h-1.1475v-1.1475h1.1475Z" fill="#050505" stroke-width="1"></path><path d="M7.425000000000001 22.86h8.0025V24H7.425000000000001Z" fill="#050505" stroke-width="1"></path><path d="M12 15.997499999999999h1.1400000000000001v2.2874999999999996H12Z" fill="#050505" stroke-width="1"></path><path d="M10.852500000000001 2.2874999999999996h5.715v1.1400000000000001h-5.715Z" fill="#050505" stroke-width="1"></path><path d="m10.852500000000001 11.43 1.1475 0 0 -1.1475 1.1400000000000001 0 0 -1.1400000000000001 -1.1400000000000001 0 0 -1.1400000000000001 -1.1475 0 0 1.1400000000000001 -1.1400000000000001 0 0 1.1400000000000001 1.1400000000000001 0 0 1.1475z" fill="#050505" stroke-width="1"></path><path d="M9.712499999999999 18.285H12v1.1400000000000001h-2.2874999999999996Z" fill="#050505" stroke-width="1"></path><path d="M8.5725 3.4275h2.2800000000000002V4.574999999999999h-2.2800000000000002Z" fill="#050505" stroke-width="1"></path><path d="M8.5725 15.997499999999999h1.1400000000000001v2.2874999999999996h-1.1400000000000001Z" fill="#050505" stroke-width="1"></path><path d="M7.425000000000001 4.574999999999999h1.1475v1.1400000000000001H7.425000000000001Z" fill="#050505" stroke-width="1"></path><path d="M7.425000000000001 0h1.1475v1.1400000000000001H7.425000000000001Z" fill="#050505" stroke-width="1"></path><path d="M5.137499999999999 21.7125H7.425000000000001v1.1475H5.137499999999999Z" fill="#050505" stroke-width="1"></path><path d="M6.285 5.715H7.425000000000001v2.2874999999999996H6.285Z" fill="#050505" stroke-width="1"></path><path d="M5.137499999999999 8.0025h1.1475v6.855H5.137499999999999Z" fill="#050505" stroke-width="1"></path><path d="M3.9975 20.572499999999998h1.1400000000000001v1.1400000000000001H3.9975Z" fill="#050505" stroke-width="1"></path><path d="M3.9975 3.4275h1.1400000000000001v3.4275H3.9975Z" fill="#050505" stroke-width="1"></path><path d="M2.8575 19.424999999999997h1.1400000000000001v1.1475H2.8575Z" fill="#050505" stroke-width="1"></path><path d="M2.8575 14.857499999999998h2.2800000000000002v1.1400000000000001H2.8575Z" fill="#050505" stroke-width="1"></path><path d="M1.71 2.2874999999999996h2.2874999999999996v1.1400000000000001H1.71Z" fill="#050505" stroke-width="1"></path><path d="M1.71 18.285h1.1475v1.1400000000000001H1.71Z" fill="#050505" stroke-width="1"></path><path d="M1.71 13.7175h1.1475v1.1400000000000001H1.71Z" fill="#050505" stroke-width="1"></path><path d="M0.5700000000000001 6.855h3.4275v1.1475H0.5700000000000001Z" fill="#050505" stroke-width="1"></path><path d="M1.71 4.574999999999999h1.1475v1.1400000000000001H1.71Z" fill="#050505" stroke-width="1"></path><path d="M0.5700000000000001 14.857499999999998h1.1400000000000001v3.4275H0.5700000000000001Z" fill="#050505" stroke-width="1"></path><path d="M0.5700000000000001 10.2825h1.1400000000000001v1.1475H0.5700000000000001Z" fill="#050505" stroke-width="1"></path><path d="M0.5700000000000001 3.4275h1.1400000000000001V4.574999999999999H0.5700000000000001Z" fill="#050505" stroke-width="1"></path></g></svg>