<svg xmlns="http://www.w3.org/2000/svg" viewBox="0 0 24 24" height="24" width="24"><title>interface-essential-hammer-2</title><g><path d="M22.2825 8.5725h1.1475v2.2874999999999996h-1.1475Z" fill="#050505" stroke-width="1"></path><path d="M21.142500000000002 10.86h1.1400000000000001V12h-1.1400000000000001Z" fill="#050505" stroke-width="1"></path><path d="M20.0025 12h1.1400000000000001v1.1400000000000001h-1.1400000000000001Z" fill="#050505" stroke-width="1"></path><path d="M20.0025 7.4325h2.2800000000000002v1.1400000000000001h-2.2800000000000002Z" fill="#050505" stroke-width="1"></path><path d="M18.855 8.5725h1.1475v1.1400000000000001h-1.1475Z" fill="#050505" stroke-width="1"></path><path d="M18.855 6.285h1.1475v1.1475h-1.1475Z" fill="#050505" stroke-width="1"></path><path d="M17.715 13.14h2.2874999999999996v1.1475h-2.2874999999999996Z" fill="#050505" stroke-width="1"></path><path d="M17.715 9.712499999999999h1.1400000000000001v1.1475h-1.1400000000000001Z" fill="#050505" stroke-width="1"></path><path d="M17.715 5.1450000000000005h1.1400000000000001v1.1400000000000001h-1.1400000000000001Z" fill="#050505" stroke-width="1"></path><path d="M16.575000000000003 10.86h1.1400000000000001v2.2800000000000002H16.575000000000003Z" fill="#050505" stroke-width="1"></path><path d="M16.575000000000003 3.9975h1.1400000000000001v1.1475H16.575000000000003Z" fill="#050505" stroke-width="1"></path><path d="M15.4275 9.712499999999999h1.1475v1.1475h-1.1475Z" fill="#050505" stroke-width="1"></path><path d="M15.4275 2.8575h1.1475v1.1400000000000001h-1.1475Z" fill="#050505" stroke-width="1"></path><path d="M14.287500000000001 10.86h1.1400000000000001V12h-1.1400000000000001Z" fill="#050505" stroke-width="1"></path><path d="M14.287500000000001 1.7175h1.1400000000000001v1.1400000000000001h-1.1400000000000001Z" fill="#050505" stroke-width="1"></path><path d="m13.14 10.86 -1.1400000000000001 0 0 -1.1475 -1.1400000000000001 0 0 1.1475 -1.1475 0 0 1.1400000000000001 1.1475 0 0 1.1400000000000001 -1.1475 0 0 1.1475 -1.1400000000000001 0 0 1.1400000000000001 -1.1400000000000001 0 0 -1.1400000000000001 -1.1475 0 0 1.1400000000000001 -1.1400000000000001 0 0 1.1475 -1.1475 0 0 1.1400000000000001 -1.1400000000000001 0 0 1.1400000000000001 -1.1400000000000001 0 0 1.1475 -1.1475 0 0 2.2874999999999996 1.1475 0 0 1.1400000000000001 2.2800000000000002 0 0 -1.1400000000000001 1.1475 0 0 -1.1475 1.1400000000000001 0 0 -1.1400000000000001 1.1475 0 0 -1.1475 1.1400000000000001 0 0 -1.1400000000000001 1.1400000000000001 0 0 -1.1400000000000001 1.1475 0 0 -1.1475 1.1400000000000001 0 0 -1.1400000000000001 1.1400000000000001 0 0 -1.1475 1.1475 0 0 -1.1400000000000001 -1.1475 0 0 -1.1400000000000001z" fill="#050505" stroke-width="1"></path><path d="M12 7.4325h1.1400000000000001v2.2800000000000002H12Z" fill="#050505" stroke-width="1"></path><path d="M10.86 0.5700000000000001h3.4275v1.1475h-3.4275Z" fill="#050505" stroke-width="1"></path><path d="M10.86 6.285H12v1.1475h-1.1400000000000001Z" fill="#050505" stroke-width="1"></path><path d="M8.5725 5.1450000000000005h2.2874999999999996v1.1400000000000001h-2.2874999999999996Z" fill="#050505" stroke-width="1"></path><path d="M8.5725 1.7175h2.2874999999999996v1.1400000000000001h-2.2874999999999996Z" fill="#050505" stroke-width="1"></path><path d="M8.5725 12h1.1400000000000001v1.1400000000000001h-1.1400000000000001Z" fill="#050505" stroke-width="1"></path><path d="M7.4325 13.14h1.1400000000000001v1.1475H7.4325Z" fill="#050505" stroke-width="1"></path><path d="M7.4325 6.285h1.1400000000000001v1.1475H7.4325Z" fill="#050505" stroke-width="1"></path><path d="M7.4325 2.8575h1.1400000000000001v1.1400000000000001H7.4325Z" fill="#050505" stroke-width="1"></path><path d="M6.285 3.9975h1.1475v2.2874999999999996H6.285Z" fill="#050505" stroke-width="1"></path></g></svg>