<svg xmlns="http://www.w3.org/2000/svg" viewBox="0 0 24 24" height="24" width="24"><title>health-health-dead</title><g><path d="M22.86 12.57375H24v2.2800000000000002h-1.1400000000000001Z" fill="#050505" stroke-width="1"></path><path d="M22.86 9.13875H24v2.2874999999999996h-1.1400000000000001Z" fill="#050505" stroke-width="1"></path><path d="M22.86 5.71125H24v2.2874999999999996h-1.1400000000000001Z" fill="#050505" stroke-width="1"></path><path d="M21.72 14.85375h1.1400000000000001v1.1475h-1.1400000000000001Z" fill="#050505" stroke-width="1"></path><path d="M21.72 11.42625h1.1400000000000001v1.1475h-1.1400000000000001Z" fill="#050505" stroke-width="1"></path><path d="M21.72 7.998749999999999h1.1400000000000001v1.1400000000000001h-1.1400000000000001Z" fill="#050505" stroke-width="1"></path><path d="M20.572499999999998 4.57125h2.2874999999999996v1.1400000000000001h-2.2874999999999996Z" fill="#050505" stroke-width="1"></path><path d="M20.572499999999998 9.13875h1.1475v1.1475h-1.1475Z" fill="#050505" stroke-width="1"></path><path d="M19.4325 14.85375h1.1400000000000001v-4.5675h-1.1400000000000001v-1.1475h-1.1400000000000001v-2.2800000000000002h-1.1475v1.1400000000000001h-3.4275v1.1400000000000001h-1.1400000000000001v1.1475h-1.1475v-1.1475h-1.1400000000000001v-1.1400000000000001H6.862500000000001v-1.1400000000000001H5.715v2.2800000000000002H4.574999999999999v1.1475H3.435v4.5675H4.574999999999999v1.1475H2.2874999999999996v1.1400000000000001h3.4275v1.1400000000000001h1.1475v1.1475h1.1400000000000001v1.1400000000000001h1.1475v1.1475h1.1400000000000001v1.1400000000000001h3.4275v-1.1400000000000001h1.1400000000000001v-1.1475h1.1475v-1.1400000000000001h1.1400000000000001v-1.1475h1.1475v-1.1400000000000001h3.4275v-1.1400000000000001h-2.2874999999999996Zm-3.4275 2.2874999999999996h-2.2874999999999996v2.2874999999999996h-3.4275v-2.2874999999999996h-2.2874999999999996v-3.4275h2.2874999999999996v-2.2874999999999996h3.4275v2.2874999999999996h2.2874999999999996Z" fill="#050505" stroke-width="1"></path><path d="M18.2925 5.71125h2.2800000000000002v1.1475h-2.2800000000000002Z" fill="#050505" stroke-width="1"></path><path d="M17.145 2.28375h1.1475v2.2874999999999996h-1.1475Z" fill="#050505" stroke-width="1"></path><path d="M6.862500000000001 4.57125h10.2825v1.1400000000000001H6.862500000000001Z" fill="#050505" stroke-width="1"></path><path d="M6.862500000000001 1.1437499999999998h10.2825v1.1400000000000001H6.862500000000001Z" fill="#050505" stroke-width="1"></path><path d="M5.715 2.28375h1.1475v2.2874999999999996H5.715Z" fill="#050505" stroke-width="1"></path><path d="M3.435 5.71125h2.2800000000000002v1.1475H3.435Z" fill="#050505" stroke-width="1"></path><path d="M2.2874999999999996 9.13875h1.1475v1.1475H2.2874999999999996Z" fill="#050505" stroke-width="1"></path><path d="M1.1475 4.57125h2.2874999999999996v1.1400000000000001H1.1475Z" fill="#050505" stroke-width="1"></path><path d="M1.1475 14.85375h1.1400000000000001v1.1475H1.1475Z" fill="#050505" stroke-width="1"></path><path d="M1.1475 11.42625h1.1400000000000001v1.1475H1.1475Z" fill="#050505" stroke-width="1"></path><path d="M1.1475 7.998749999999999h1.1400000000000001v1.1400000000000001H1.1475Z" fill="#050505" stroke-width="1"></path><path d="M0 12.57375h1.1475v2.2800000000000002H0Z" fill="#050505" stroke-width="1"></path><path d="M0 9.13875h1.1475v2.2874999999999996H0Z" fill="#050505" stroke-width="1"></path><path d="M0 5.71125h1.1475v2.2874999999999996H0Z" fill="#050505" stroke-width="1"></path></g></svg>