<svg xmlns="http://www.w3.org/2000/svg" viewBox="0 0 24 24" height="24" width="24"><title>interface-essential-light-bulb</title><g><path d="M20.572499999999998 4.574999999999999h1.1400000000000001v9.1425h-1.1400000000000001Z" fill="#000000" stroke-width="1"></path><path d="M19.424999999999997 13.7175h1.1475v1.1400000000000001H19.424999999999997Z" fill="#000000" stroke-width="1"></path><path d="M19.424999999999997 3.4275h1.1475V4.574999999999999H19.424999999999997Z" fill="#000000" stroke-width="1"></path><path d="M18.285 14.857499999999998h1.1400000000000001v1.1400000000000001h-1.1400000000000001Z" fill="#000000" stroke-width="1"></path><path d="M18.285 2.2874999999999996h1.1400000000000001v1.1400000000000001h-1.1400000000000001Z" fill="#000000" stroke-width="1"></path><path d="M17.137500000000003 15.997499999999999h1.1475v1.1475h-1.1475Z" fill="#000000" stroke-width="1"></path><path d="M17.137500000000003 1.1400000000000001h1.1475v1.1475h-1.1475Z" fill="#000000" stroke-width="1"></path><path d="M13.71 17.145v-4.574999999999999h-1.1400000000000001v4.574999999999999h-1.1400000000000001v-4.574999999999999h-1.1475v4.574999999999999H6.855v1.1400000000000001h1.1400000000000001v4.574999999999999h1.1475v-1.1475h5.715v1.1475h1.1400000000000001v-4.574999999999999h1.1400000000000001v-1.1400000000000001Zm1.1475 2.2800000000000002h-5.715v-1.1400000000000001h5.715Z" fill="#000000" stroke-width="1"></path><path d="M14.857499999999998 8.0025h1.1400000000000001v2.2800000000000002h-1.1400000000000001Z" fill="#000000" stroke-width="1"></path><path d="M13.71 10.2825h1.1475v2.2874999999999996h-1.1475Z" fill="#000000" stroke-width="1"></path><path d="M9.1425 22.86h5.715V24h-5.715Z" fill="#000000" stroke-width="1"></path><path d="M9.1425 10.2825h1.1400000000000001v2.2874999999999996h-1.1400000000000001Z" fill="#000000" stroke-width="1"></path><path d="M7.995 8.0025h1.1475v2.2800000000000002h-1.1475Z" fill="#000000" stroke-width="1"></path><path d="M6.855 0h10.2825v1.1400000000000001H6.855Z" fill="#000000" stroke-width="1"></path><path d="M5.715 15.997499999999999h1.1400000000000001v1.1475H5.715Z" fill="#000000" stroke-width="1"></path><path d="M5.715 1.1400000000000001h1.1400000000000001v1.1475H5.715Z" fill="#000000" stroke-width="1"></path><path d="M4.5675 14.857499999999998h1.1475v1.1400000000000001H4.5675Z" fill="#000000" stroke-width="1"></path><path d="M4.5675 2.2874999999999996h1.1475v1.1400000000000001H4.5675Z" fill="#000000" stroke-width="1"></path><path d="M3.4275 13.7175h1.1400000000000001v1.1400000000000001H3.4275Z" fill="#000000" stroke-width="1"></path><path d="M3.4275 3.4275h1.1400000000000001V4.574999999999999H3.4275Z" fill="#000000" stroke-width="1"></path><path d="M2.2874999999999996 4.574999999999999h1.1400000000000001v9.1425H2.2874999999999996Z" fill="#000000" stroke-width="1"></path></g></svg>