<svg xmlns="http://www.w3.org/2000/svg" viewBox="0 0 24 24" height="24" width="24"><title>business-money-coin-currency</title><g><path d="m13.713750000000001 4.57125 2.2874999999999996 0 0 1.1400000000000001 1.1400000000000001 0 0 1.1475 1.1475 0 0 2.2874999999999996 1.1400000000000001 0 0 5.7075000000000005 -1.1400000000000001 0 0 2.2874999999999996 -1.1475 0 0 1.1475 -1.1400000000000001 0 0 1.1400000000000001 -2.2874999999999996 0 0 1.1400000000000001 -5.715 0 0 1.1475 8.0025 0 0 -1.1475 2.2874999999999996 0 0 -1.1400000000000001 1.1400000000000001 0 0 -1.1400000000000001 1.1475 0 0 -1.1475 1.1400000000000001 0 0 -2.2874999999999996 1.1400000000000001 0 0 -5.7075000000000005 -1.1400000000000001 0 0 -2.2874999999999996 -1.1400000000000001 0 0 -1.1475 -1.1475 0 0 -1.1400000000000001 -1.1400000000000001 0 0 -1.1400000000000001 -2.2874999999999996 0 0 -1.1475 -8.0025 0 0 1.1475 5.715 0 0 1.1400000000000001z" fill="#000000" stroke-width="1"></path><path d="M17.14125 9.14625h1.1475v5.7075000000000005h-1.1475Z" fill="#000000" stroke-width="1"></path><path d="M16.00125 14.85375h1.1400000000000001v1.1475h-1.1400000000000001Z" fill="#000000" stroke-width="1"></path><path d="M16.00125 7.998749999999999h1.1400000000000001v1.1475h-1.1400000000000001Z" fill="#000000" stroke-width="1"></path><path d="M14.861250000000002 16.00125h1.1400000000000001v1.1400000000000001h-1.1400000000000001Z" fill="#000000" stroke-width="1"></path><path d="M14.861250000000002 6.85875h1.1400000000000001v1.1400000000000001h-1.1400000000000001Z" fill="#000000" stroke-width="1"></path><path d="M13.713750000000001 17.14125h1.1475v1.1475h-1.1475Z" fill="#000000" stroke-width="1"></path><path d="M13.713750000000001 5.71125h1.1475v1.1475h-1.1475Z" fill="#000000" stroke-width="1"></path><path d="M7.998749999999999 18.28875h5.715v1.1400000000000001h-5.715Z" fill="#000000" stroke-width="1"></path><path d="M12.57375 12.57375h1.1400000000000001v2.2800000000000002h-1.1400000000000001Z" fill="#000000" stroke-width="1"></path><path d="M12.57375 9.14625h1.1400000000000001v1.1400000000000001h-1.1400000000000001Z" fill="#000000" stroke-width="1"></path><path d="M7.998749999999999 4.57125h5.715v1.1400000000000001h-5.715Z" fill="#000000" stroke-width="1"></path><path d="m10.286249999999999 16.00125 0 1.1400000000000001 1.1400000000000001 0 0 -1.1400000000000001 1.1475 0 0 -1.1475 -1.1475 0 0 -2.2800000000000002 1.1475 0 0 -1.1475 -1.1475 0 0 -2.2800000000000002 1.1475 0 0 -1.1475 -1.1475 0 0 -1.1400000000000001 -1.1400000000000001 0 0 1.1400000000000001 -1.1400000000000001 0 0 1.1475 1.1400000000000001 0 0 2.2800000000000002 -1.1400000000000001 0 0 1.1475 1.1400000000000001 0 0 2.2800000000000002 -1.1400000000000001 0 0 1.1475 1.1400000000000001 0z" fill="#000000" stroke-width="1"></path><path d="M7.998749999999999 13.713750000000001h1.1475v1.1400000000000001h-1.1475Z" fill="#000000" stroke-width="1"></path><path d="M7.998749999999999 9.14625h1.1475v2.2800000000000002h-1.1475Z" fill="#000000" stroke-width="1"></path><path d="M5.71875 19.42875h2.2800000000000002v1.1400000000000001h-2.2800000000000002Z" fill="#000000" stroke-width="1"></path><path d="M6.85875 17.14125h1.1400000000000001v1.1475h-1.1400000000000001Z" fill="#000000" stroke-width="1"></path><path d="M6.85875 5.71125h1.1400000000000001v1.1475h-1.1400000000000001Z" fill="#000000" stroke-width="1"></path><path d="M5.71875 3.4312500000000004h2.2800000000000002v1.1400000000000001h-2.2800000000000002Z" fill="#000000" stroke-width="1"></path><path d="M5.71875 16.00125h1.1400000000000001v1.1400000000000001h-1.1400000000000001Z" fill="#000000" stroke-width="1"></path><path d="M5.71875 6.85875h1.1400000000000001v1.1400000000000001h-1.1400000000000001Z" fill="#000000" stroke-width="1"></path><path d="M4.57125 18.28875h1.1475v1.1400000000000001h-1.1475Z" fill="#000000" stroke-width="1"></path><path d="M4.57125 14.85375h1.1475v1.1475h-1.1475Z" fill="#000000" stroke-width="1"></path><path d="M4.57125 7.998749999999999h1.1475v1.1475h-1.1475Z" fill="#000000" stroke-width="1"></path><path d="M4.57125 4.57125h1.1475v1.1400000000000001h-1.1475Z" fill="#000000" stroke-width="1"></path><path d="M3.4312500000000004 17.14125h1.1400000000000001v1.1475h-1.1400000000000001Z" fill="#000000" stroke-width="1"></path><path d="M3.4312500000000004 9.14625h1.1400000000000001v5.7075000000000005h-1.1400000000000001Z" fill="#000000" stroke-width="1"></path><path d="M3.4312500000000004 5.71125h1.1400000000000001v1.1475h-1.1400000000000001Z" fill="#000000" stroke-width="1"></path><path d="M2.28375 14.85375h1.1475v2.2874999999999996h-1.1475Z" fill="#000000" stroke-width="1"></path><path d="M2.28375 6.85875h1.1475v2.2874999999999996h-1.1475Z" fill="#000000" stroke-width="1"></path><path d="M1.1437499999999998 9.14625h1.1400000000000001v5.7075000000000005h-1.1400000000000001Z" fill="#000000" stroke-width="1"></path></g></svg>