<svg xmlns="http://www.w3.org/2000/svg" viewBox="0 0 24 24" height="24" width="24"><title>interface-essential-protect-guard</title><g><path d="M20.572499999999998 3.4275h1.1400000000000001v12.57h-1.1400000000000001Z" fill="#050505" stroke-width="1"></path><path d="M19.424999999999997 15.997499999999999h1.1475v2.2874999999999996H19.424999999999997Z" fill="#050505" stroke-width="1"></path><path d="M18.285 18.285h1.1400000000000001v1.1400000000000001h-1.1400000000000001Z" fill="#050505" stroke-width="1"></path><path d="m7.995 3.4275 -2.2800000000000002 0 0 1.1475 -1.1475 0 0 11.4225 1.1475 0 0 -4.5675 5.715 0 0 9.1425 -1.1475 0 0 1.1400000000000001 3.4275 0 0 -1.1400000000000001 2.2874999999999996 0 0 -1.1475 1.1400000000000001 0 0 -1.1400000000000001 1.1475 0 0 -2.2874999999999996 1.1400000000000001 0 0 -11.4225 -1.1400000000000001 0 0 6.855 -5.715 0 0 -8.0025 3.4275 0 0 -1.1400000000000001 -8.0025 0 0 1.1400000000000001z" fill="#050505" stroke-width="1"></path><path d="M18.285 2.2874999999999996h2.2874999999999996v1.1400000000000001h-2.2874999999999996Z" fill="#050505" stroke-width="1"></path><path d="M17.137500000000003 19.424999999999997h1.1475v1.1475h-1.1475Z" fill="#050505" stroke-width="1"></path><path d="M15.997499999999999 20.572499999999998h1.1400000000000001v1.1400000000000001h-1.1400000000000001Z" fill="#050505" stroke-width="1"></path><path d="M15.997499999999999 3.4275h2.2874999999999996V4.574999999999999h-2.2874999999999996Z" fill="#050505" stroke-width="1"></path><path d="M15.997499999999999 1.1400000000000001h2.2874999999999996v1.1475h-2.2874999999999996Z" fill="#050505" stroke-width="1"></path><path d="M13.71 21.7125h2.2874999999999996v1.1475h-2.2874999999999996Z" fill="#050505" stroke-width="1"></path><path d="M10.2825 22.86h3.4275V24h-3.4275Z" fill="#050505" stroke-width="1"></path><path d="M7.995 21.7125h2.2874999999999996v1.1475h-2.2874999999999996Z" fill="#050505" stroke-width="1"></path><path d="M7.995 19.424999999999997h2.2874999999999996v1.1475h-2.2874999999999996Z" fill="#050505" stroke-width="1"></path><path d="M7.995 0h8.0025v1.1400000000000001H7.995Z" fill="#050505" stroke-width="1"></path><path d="M6.855 20.572499999999998h1.1400000000000001v1.1400000000000001H6.855Z" fill="#050505" stroke-width="1"></path><path d="M6.855 18.285h1.1400000000000001v1.1400000000000001H6.855Z" fill="#050505" stroke-width="1"></path><path d="M5.715 1.1400000000000001h2.2800000000000002v1.1475H5.715Z" fill="#050505" stroke-width="1"></path><path d="M5.715 19.424999999999997h1.1400000000000001v1.1475H5.715Z" fill="#050505" stroke-width="1"></path><path d="M5.715 15.997499999999999h1.1400000000000001v2.2874999999999996H5.715Z" fill="#050505" stroke-width="1"></path><path d="M4.5675 18.285h1.1475v1.1400000000000001H4.5675Z" fill="#050505" stroke-width="1"></path><path d="M3.4275 2.2874999999999996h2.2874999999999996v1.1400000000000001H3.4275Z" fill="#050505" stroke-width="1"></path><path d="M3.4275 15.997499999999999h1.1400000000000001v2.2874999999999996H3.4275Z" fill="#050505" stroke-width="1"></path><path d="M2.2874999999999996 3.4275h1.1400000000000001v12.57H2.2874999999999996Z" fill="#050505" stroke-width="1"></path></g></svg>